<svg id="visual" viewBox="0 0 9999 200" width="9999" height="200" xmlns="http://www.w3.org/2000/svg" version="1.1"><path d="M0 73L151.5 83.3C303 93.7 606 114.3 909 127.7C1212 141 1515 147 1818 141.5C2121 136 2424 119 2727 96.8C3030 74.7 3333 47.3 3636 42.5C3939 37.7 4242 55.3 4545 61.5C4848 67.7 5151 62.3 5454 71.8C5757 81.3 6060 105.7 6363 99.7C6666 93.7 6969 57.3 7272 38.5C7575 19.7 7878 18.3 8181 27.5C8484 36.7 8787 56.3 9090 60.8C9393 65.3 9696 54.7 9847.5 49.3L9999 44L9999 201L9847.5 201C9696 201 9393 201 9090 201C8787 201 8484 201 8181 201C7878 201 7575 201 7272 201C6969 201 6666 201 6363 201C6060 201 5757 201 5454 201C5151 201 4848 201 4545 201C4242 201 3939 201 3636 201C3333 201 3030 201 2727 201C2424 201 2121 201 1818 201C1515 201 1212 201 909 201C606 201 303 201 151.5 201L0 201Z" fill="#e76352"></path><path d="M0 120L151.5 121C303 122 606 124 909 128.2C1212 132.3 1515 138.7 1818 127.8C2121 117 2424 89 2727 88.8C3030 88.7 3333 116.3 3636 122.3C3939 128.3 4242 112.7 4545 101.3C4848 90 5151 83 5454 90.2C5757 97.3 6060 118.7 6363 119.3C6666 120 6969 100 7272 92.7C7575 85.3 7878 90.7 8181 90C8484 89.3 8787 82.7 9090 81.2C9393 79.7 9696 83.3 9847.5 85.2L9999 87L9999 201L9847.5 201C9696 201 9393 201 9090 201C8787 201 8484 201 8181 201C7878 201 7575 201 7272 201C6969 201 6666 201 6363 201C6060 201 5757 201 5454 201C5151 201 4848 201 4545 201C4242 201 3939 201 3636 201C3333 201 3030 201 2727 201C2424 201 2121 201 1818 201C1515 201 1212 201 909 201C606 201 303 201 151.5 201L0 201Z" fill="#cd4a63"></path><path d="M0 124L151.5 117.7C303 111.3 606 98.7 909 98.8C1212 99 1515 112 1818 122.8C2121 133.7 2424 142.3 2727 142.3C3030 142.3 3333 133.7 3636 126.7C3939 119.7 4242 114.3 4545 110C4848 105.7 5151 102.3 5454 100.2C5757 98 6060 97 6363 105.3C6666 113.7 6969 131.3 7272 128C7575 124.7 7878 100.3 8181 91.7C8484 83 8787 90 9090 99C9393 108 9696 119 9847.5 124.5L9999 130L9999 201L9847.5 201C9696 201 9393 201 9090 201C8787 201 8484 201 8181 201C7878 201 7575 201 7272 201C6969 201 6666 201 6363 201C6060 201 5757 201 5454 201C5151 201 4848 201 4545 201C4242 201 3939 201 3636 201C3333 201 3030 201 2727 201C2424 201 2121 201 1818 201C1515 201 1212 201 909 201C606 201 303 201 151.5 201L0 201Z" fill="#aa3b6d"></path><path d="M0 120L151.5 126.2C303 132.3 606 144.7 909 142.2C1212 139.7 1515 122.3 1818 119.8C2121 117.3 2424 129.7 2727 140.2C3030 150.7 3333 159.3 3636 165.2C3939 171 4242 174 4545 165.8C4848 157.7 5151 138.3 5454 125.5C5757 112.7 6060 106.3 6363 105.5C6666 104.7 6969 109.3 7272 109.7C7575 110 7878 106 8181 105.8C8484 105.7 8787 109.3 9090 111.5C9393 113.7 9696 114.3 9847.5 114.7L9999 115L9999 201L9847.5 201C9696 201 9393 201 9090 201C8787 201 8484 201 8181 201C7878 201 7575 201 7272 201C6969 201 6666 201 6363 201C6060 201 5757 201 5454 201C5151 201 4848 201 4545 201C4242 201 3939 201 3636 201C3333 201 3030 201 2727 201C2424 201 2121 201 1818 201C1515 201 1212 201 909 201C606 201 303 201 151.5 201L0 201Z" fill="#7f3470"></path><path d="M0 164L151.5 162.8C303 161.7 606 159.3 909 161C1212 162.7 1515 168.3 1818 171C2121 173.7 2424 173.3 2727 167.7C3030 162 3333 151 3636 151.2C3939 151.3 4242 162.7 4545 167.2C4848 171.7 5151 169.3 5454 167.8C5757 166.3 6060 165.7 6363 163.5C6666 161.3 6969 157.7 7272 159.8C7575 162 7878 170 8181 168.7C8484 167.3 8787 156.7 9090 157C9393 157.3 9696 168.7 9847.5 174.3L9999 180L9999 201L9847.5 201C9696 201 9393 201 9090 201C8787 201 8484 201 8181 201C7878 201 7575 201 7272 201C6969 201 6666 201 6363 201C6060 201 5757 201 5454 201C5151 201 4848 201 4545 201C4242 201 3939 201 3636 201C3333 201 3030 201 2727 201C2424 201 2121 201 1818 201C1515 201 1212 201 909 201C606 201 303 201 151.5 201L0 201Z" fill="#512f69"></path><path d="M0 155L151.5 155.8C303 156.7 606 158.3 909 158.8C1212 159.3 1515 158.7 1818 160.2C2121 161.7 2424 165.3 2727 166.7C3030 168 3333 167 3636 169.8C3939 172.7 4242 179.3 4545 176.8C4848 174.3 5151 162.7 5454 158C5757 153.3 6060 155.7 6363 155.3C6666 155 6969 152 7272 157.5C7575 163 7878 177 8181 184C8484 191 8787 191 9090 188C9393 185 9696 179 9847.5 176L9999 173L9999 201L9847.5 201C9696 201 9393 201 9090 201C8787 201 8484 201 8181 201C7878 201 7575 201 7272 201C6969 201 6666 201 6363 201C6060 201 5757 201 5454 201C5151 201 4848 201 4545 201C4242 201 3939 201 3636 201C3333 201 3030 201 2727 201C2424 201 2121 201 1818 201C1515 201 1212 201 909 201C606 201 303 201 151.5 201L0 201Z" fill="#202859"></path></svg>
