<svg id="visual" viewBox="0 0 64 64" width="64" height="64" xmlns="http://www.w3.org/2000/svg" version="1.1"><g transform="translate(1.2699851479558788 1.518482267321641)"><path d="M31.6 -41.8C43.1 -35 56.3 -28.8 59.7 -19.2C63.1 -9.6 56.7 3.4 53 17.9C49.3 32.5 48.2 48.6 39.7 54.2C31.3 59.8 15.7 54.9 0.5 54.2C-14.7 53.6 -29.4 57.1 -41.1 52.6C-52.8 48.1 -61.6 35.5 -63 22.5C-64.4 9.6 -58.3 -3.7 -53.7 -17.2C-49 -30.7 -45.6 -44.5 -36.9 -52.2C-28.2 -59.8 -14.1 -61.4 -2.1 -58.6C10 -55.8 20 -48.5 31.6 -41.8" fill="#202859"></path></g></svg>
